<svg xmlns="http://www.w3.org/2000/svg" width="20" height="20.31" viewBox="0 0 20 20.31">
  <g id="icon_access_management_black" transform="translate(-2.731 -2.25)">
    <path id="Path_36819" data-name="Path 36819" d="M22.5,22.5h7.261v1.452H22.5Z" transform="translate(-7.03 -7.194)" fill="#191919"/>
    <path id="Path_36820" data-name="Path 36820" d="M22.5,27h7.261v1.452H22.5Z" transform="translate(-7.03 -8.796)" fill="#191919"/>
    <path id="Path_36821" data-name="Path 36821" d="M22.5,31.5h7.261v1.452H22.5Z" transform="translate(-7.03 -10.392)" fill="#191919"/>
    <path id="Path_36822" data-name="Path 36822" d="M15.606,18.511a2.932,2.932,0,1,1,2.9-2.9h1.452a4.356,4.356,0,1,0-4.356,4.356Z" transform="translate(-3.03 -3.201)" fill="#191919"/>
    <path id="Path_36823" data-name="Path 36823" d="M22.227,8.811,20.515,5.845A1.449,1.449,0,0,0,18.793,5.2l-1.765.6a8.009,8.009,0,0,0-.952-.55L15.71,3.416A1.451,1.451,0,0,0,14.288,2.25H10.864A1.451,1.451,0,0,0,9.442,3.416L9.076,5.243a7.955,7.955,0,0,0-.963.547L6.358,5.2a1.449,1.449,0,0,0-1.72.649L2.926,8.811a1.451,1.451,0,0,0,.3,1.815l1.4,1.231c-.012.182-.027.364-.027.549s.007.372.021.556L3.225,14.185A1.451,1.451,0,0,0,2.925,16l1.712,2.965a1.449,1.449,0,0,0,1.722.649l1.765-.6a7.96,7.96,0,0,0,.952.551l.365,1.827a1.451,1.451,0,0,0,1.423,1.166h1.712V21.109H10.864l-.515-2.575a6.6,6.6,0,0,1-1.955-1.14l-2.5.846L4.182,15.275l1.977-1.737a6.475,6.475,0,0,1-.005-2.269L4.182,9.535,5.894,6.571l2.486.841a6.55,6.55,0,0,1,1.97-1.136L10.864,3.7h3.424L14.8,6.276a6.6,6.6,0,0,1,1.955,1.14l2.5-.846L20.97,9.535l-2.03,1.778.956,1.092,2.031-1.78a1.451,1.451,0,0,0,.3-1.815Z" fill="#191919"/>
  </g>
</svg>
