<svg xmlns="http://www.w3.org/2000/svg" width="14" height="14" viewBox="0 0 14 14">
  <path id="icon_info_field" d="M-183,14a7,7,0,0,0,7-7,7,7,0,0,0-7-7,7,7,0,0,0-7,7A7,7,0,0,0-183,14Zm.814-8.235-2,.251-.072.332.394.073c.257.061.308.154.252.41l-.646,3.035c-.17.785.092,1.154.707,1.154a1.812,1.812,0,0,0,1.282-.523l.077-.364a.969.969,0,0,1-.6.215c-.241,0-.328-.169-.266-.466ZM-183,4.813a.875.875,0,0,0,.875-.875A.875.875,0,0,0-183,3.063a.875.875,0,0,0-.875.875A.875.875,0,0,0-183,4.813Z" transform="translate(190)" fill="#191919"/>
</svg>
